<svg id="elIg6qGjkRM1" xmlns="http://www.w3.org/2000/svg" xmlns:xlink="http://www.w3.org/1999/xlink" viewBox="0 0 672.5315 738.39398" shape-rendering="geometricPrecision" text-rendering="geometricPrecision"><defs><filter id="elIg6qGjkRM24-filter" x="-400%" width="600%" y="-400%" height="600%"><feComponentTransfer id="elIg6qGjkRM24-filter-brightness-0" result="result"><feFuncR id="elIg6qGjkRM24-filter-brightness-0-R" type="linear" slope="0.44"/><feFuncG id="elIg6qGjkRM24-filter-brightness-0-G" type="linear" slope="0.44"/><feFuncB id="elIg6qGjkRM24-filter-brightness-0-B" type="linear" slope="0.44"/></feComponentTransfer></filter><filter id="elIg6qGjkRM30-filter" x="-400%" width="600%" y="-400%" height="600%"><feComponentTransfer id="elIg6qGjkRM30-filter-brightness-0" result="result"><feFuncR id="elIg6qGjkRM30-filter-brightness-0-R" type="linear" slope="1.21"/><feFuncG id="elIg6qGjkRM30-filter-brightness-0-G" type="linear" slope="1.21"/><feFuncB id="elIg6qGjkRM30-filter-brightness-0-B" type="linear" slope="1.21"/></feComponentTransfer></filter></defs><path d="M730.73425,230.607c-46.62012-7.44-99.71-11.41-155-11.41-50.6001,0-99.3501,3.32-142.98,9.58.01026-.67005.02-1.34.04981-2.01c2.405605-80.883064,68.926508-145.061445,149.843827-144.567103s146.649126,65.480685,148.066323,146.387103c.01028.68.02004,1.35.02004,2.02Z" transform="translate(-263.734-80.803)" fill="#6c63ff"/><g opacity="0.1"><path d="M601.28454,82.14432c-41.84821-5.652523-84.130034,6.711757-116.339495,34.020626s-51.3231,66.998879-52.591655,109.208054c-.03027.67-.04,1.34-.0498,2.01c12.96191-1.85981,26.38476-3.4535,40.165-4.78431c3.477627-71.744553,57.639016-130.799381,128.81595-140.45437Z" transform="translate(-263.734-80.803)" fill="#fff"/></g><path d="M795.91443,242.427c-21.460229-5.817622-43.227192-10.43808-65.2002-13.84-36.014298-5.580832-72.321736-9.070014-108.73974-10.45-15.17041-.62-30.62012-.94-46.24024-.94-12.37988,0-24.66015.2-36.77.6-35.523945,1.049551-70.963742,4.044036-106.16015,8.97-26.054154,3.587606-51.855566,8.818029-77.25,15.66-59.21,16.37-91.81983,38.31-91.81983,61.77s32.60987,45.4,91.81983,61.77c41.64013,11.52,92.98,19.37,148.92041,22.97c23.08984,1.5,46.96,2.26,71.25976,2.26c24.37988,0,48.33008-.77,71.49024-2.27c50.90966-3.29,98.00976-10.1,137.42968-20c.21-.06.41016-.11.62012-.16c2.66016-.66,5.27979-1.35,7.87012-2.04.92969-.26,1.84961-.51,2.77-.76.051698-.021195.105117-.037923.15967-.05.88037-.24,1.75-.49,2.62011-.73c1.74024-.5,3.46-.99,5.14991-1.5.08007-.02.1499-.04.22021-.06c1.46973-.44,2.91016-.88,4.33984-1.32c1.16993-.37,2.33008-.73,3.48-1.1q1.26051-.405,2.49024-.81c.6001-.2,1.18994-.39,1.77-.59.79-.26,1.58008-.53,2.35986-.8.33008-.11.66016-.22.98-.34.75-.25,1.48-.51,2.21-.77.79-.28,1.58008-.57,2.35987-.85.65039-.23,1.30029-.47,1.93994-.71.54-.21,1.07031-.41,1.61035-.61c1.46973-.55,2.91016-1.12006,4.33008-1.68.71-.29,1.41992-.57,2.11963-.86.68994-.28,1.39013-.57,2.07031-.86q1.67944-.70506,3.2998-1.41c.52-.24,1.0503-.47,1.56006-.68994.39014-.18.77-.35,1.16016-.53.27978-.12.56006-.25.83008-.38c1.00976-.46,2.00976-.93,2.98974-1.4q5.64039-2.7,10.52979-5.52c20.45019-11.71,31.24023-24.7,31.24023-38.2-.00006-23.46006-32.60992-45.40006-91.81988-61.77006Zm-.54,121.62c-41.68994,11.53-93.16992,19.38-149.26026,22.95-22.81005,1.45-46.38964,2.2-70.37988,2.2-23.91015,0-47.41015-.74-70.1499-2.19-56.18018-3.56-107.74023-11.41-149.49023-22.96-58.27-16.12-90.35987-37.37-90.35987-59.85.003256-1.986325.251886-3.964641.74024-5.89c5.09961-20.28,36.46972-39.26,89.61963-53.96c25.202486-6.788665,50.806197-11.988887,76.66015-15.57c35.408226-4.95384,71.061903-7.958369,106.79981-9q17.88061-.585,36.18017-.58c15.41016,0,30.6499.31,45.62988.91c36.630042,1.367653,73.148934,4.873623,109.37012,10.5c21.783172,3.386758,43.362719,7.97374,64.6401,13.74c53.14014,14.7,84.5,33.67,89.60986,53.94.496313,1.930856.748282,3.916378.75,5.91c0,22.48-32.08984,43.73-90.35986,59.85Z" transform="translate(-263.734-80.803)" fill="#3f3d56"/><path d="M887.16443,305.107c0,13.36005-11.01026,26-30.67041,37.29-3.26953,1.88-6.78955,3.72-10.52979,5.52-.98.47-1.98.94-2.98974,1.4-.27.13-.5503.26-.83008.38-.39014.18-.77.35-1.16016.53-.50976.22-1.04.45-1.56006.68994q-1.6201.705-3.2998,1.41c-.68018.29-1.38037.58-2.07031.86-.69971.29-1.40967.57-2.11963.86-1.41992.56-2.86035,1.13-4.33008,1.68-.54.2-1.07031.4-1.61035.61-.63965.24-1.28955.48-1.93994.71-.77979.28-1.56983.57-2.35987.85-.73.26-1.46.52-2.21.77-.31982.12006-.6499.23-.98.34-.77978.27-1.56982.54-2.35986.8-.58008.2-1.16992.39-1.77.59q-1.23046.40494-2.49024.81c-1.1499.37-2.31.73-3.48,1.1-1.42968.44-2.87011.88-4.33984,1.32-.07031.02-.14014.04-.22021.06-1.68995.51-3.40967,1-5.14991,1.5-.87011.24-1.73974.49-2.62011.73-.054553.012077-.107972.028805-.15967.05-.92041.25-1.84033.5-2.77.76-2.58008.68-5.21,1.37-7.87012,2.04-.21.05-.41016.1-.62012.16-38.35009,9.58-85.3999,16.56-137.46972,19.93-22.81006,1.47-46.59033,2.25-71.02,2.25-24.6499,0-48.63037-.79-71.62012-2.29-137.24023-8.95-239.37988-43.03-239.37988-83.71.010806-2.475261.388108-4.935278,1.11963-7.3.06006.17.12011.33.19043.5c14.26953,37.48,115.54,67.77,246.93994,75.16c20.12988,1.13995,40.98,1.73,62.31982,1.73c21.43018,0,42.35987-.6,62.56983-1.74c131.29-7.42,232.46045-37.72,246.68017-75.17q.36036-.90006.62988-1.8c1.013886,2.761399,1.538516,5.678437,1.55032,8.62006Z" transform="translate(-263.734-80.803)" fill="#3f3d56"/><path d="M355.40356,294.343c-16.6427,0-34.33068-3.58057-34.33068-10.2168s17.688-10.2168,34.33068-10.2168s34.33069,3.58057,34.33069,10.2168-17.68799,10.2168-34.33069,10.2168Zm0-18.4336c-19.053,0-32.33068,4.33057-32.33068,8.2168s13.2777,8.2168,32.33068,8.2168s32.33069-4.33057,32.33069-8.2168-13.27771-8.21681-32.33069-8.21681Z" transform="translate(-263.734-80.803)" fill="#3f3d56"/><path d="M426.40344,341.343c-16.64258,0-34.33056-3.58057-34.33056-10.2168s17.688-10.2168,34.33056-10.2168c16.64282,0,34.33081,3.58057,34.33081,10.2168s-17.68799,10.2168-34.33081,10.2168Zm0-18.4336c-19.05286,0-32.33056,4.33057-32.33056,8.2168s13.2777,8.2168,32.33056,8.2168s32.33081-4.33057,32.33081-8.2168-13.27783-8.21681-32.33081-8.21681Z" transform="translate(-263.734-80.803)" fill="#3f3d56"/><path d="M795.40344,294.343c-16.64258,0-34.33056-3.58057-34.33056-10.2168s17.688-10.2168,34.33056-10.2168c16.64282,0,34.33081,3.58057,34.33081,10.2168s-17.68799,10.2168-34.33081,10.2168Zm0-18.4336c-19.053,0-32.33056,4.33057-32.33056,8.2168s13.27758,8.2168,32.33056,8.2168s32.33081-4.33057,32.33081-8.2168-13.27783-8.21681-32.33081-8.21681Z" transform="translate(-263.734-80.803)" fill="#3f3d56"/><path d="M724.40344,341.343c-16.64258,0-34.33056-3.58057-34.33056-10.2168s17.688-10.2168,34.33056-10.2168c16.64282,0,34.33081,3.58057,34.33081,10.2168s-17.68799,10.2168-34.33081,10.2168Zm0-18.4336c-19.053,0-32.33056,4.33057-32.33056,8.2168s13.27758,8.2168,32.33056,8.2168s32.33081-4.33057,32.33081-8.2168-13.27783-8.21681-32.33081-8.21681Z" transform="translate(-263.734-80.803)" fill="#3f3d56"/><path d="M575.40344,363.343c-16.64258,0-34.33056-3.58057-34.33056-10.2168s17.688-10.2168,34.33056-10.2168c16.64282,0,34.33081,3.58057,34.33081,10.2168s-17.68799,10.2168-34.33081,10.2168Zm0-18.4336c-19.053,0-32.33056,4.33057-32.33056,8.2168s13.27758,8.2168,32.33056,8.2168s32.33081-4.33057,32.33081-8.2168-13.27783-8.21681-32.33081-8.21681Z" transform="translate(-263.734-80.803)" fill="#3f3d56"/><g id="elIg6qGjkRM12" transform="translate(.000001 0)"><rect width="22.8676" height="12.7633" rx="0" ry="0" transform="matrix(.894146-.447775 0.447775 0.894146 300.555881 488.545168)" fill="#2f2e41"/><circle r="42.0123" transform="translate(336.978 450.704)" fill="#2f2e41"/><ellipse rx="3.98853" ry="10.636" transform="matrix(.550463-.83486 0.83486 0.550463 300.086015 492.945342)" fill="#2f2e41"/><ellipse rx="10.636" ry="3.98853" transform="matrix(.83486-.550463 0.550463 0.83486 373.86981 492.944792)" fill="#2f2e41"/><rect width="12.7633" height="22.8676" rx="0" ry="0" transform="matrix(.447775-.894146 0.894146 0.447775 347.238598 489.720219)" fill="#2f2e41"/><circle r="14.3586" transform="translate(334.037 440.428)" fill="#fff"/><ellipse rx="4.76624" ry="4.8" transform="matrix(.707107-.707107 0.707107 0.707107 334.135321 434.280458)" fill="#3f3d56"/><path d="M612.25083,548.0638c.946848,5.201233-2.502012,10.185237-7.703245,11.132085s-10.185237-2.502012-11.132085-7.703245l-.00336-.0185c-.94177-5.20214,3.08039-7.043,8.28254-7.98474s9.61444-.62774,10.55615,4.5744Z" transform="translate(-263.734-80.803)" fill="#fff"/><path d="M633.854,485.80233c.63177-15.55359-12.77314-28.7276-29.9408-29.42493s-31.59692,11.346-32.22873,26.8996s11.30191,19.08746,28.46958,19.78485s33.06809-1.70593,33.69995-17.25952Z" transform="translate(-263.734-80.803)" fill="#6c63ff"/><ellipse rx="21.0062" ry="6.59448" transform="matrix(.651372-.758758 0.758758 0.651372 293.41985 456.764661)" fill="#2f2e41"/><ellipse rx="6.59448" ry="21.0062" transform="matrix(.758758-.651372 0.651372 0.758758 380.653635 456.765714)" fill="#2f2e41"/></g><g id="elIg6qGjkRM24" filter="url(#elIg6qGjkRM24-filter)"><path d="M618.73425,677.197c-1.104547-.000055-1.999945-.895453-2-2v-86c0-1.104569.895431-2,2-2s2,.895431,2,2v86c-.000055,1.104547-.895453,1.999945-2,2Z" transform="translate(-263.734-80.803)" fill="#ccc"/><path d="M662.73425,476.197c-1.104547-.000055-1.999945-.895453-2-2v-48c0-1.104569.895431-2,2-2s2,.895431,2,2v48c-.000055,1.104547-.895453,1.999945-2,2Z" transform="translate(-263.734-80.803)" fill="#ccc"/><path d="M488.73425,471.197c-1.104547-.000055-1.999945-.895453-2-2v-48c0-1.104569.895431-2,2-2s2,.895431,2,2v48c-.000055,1.104547-.895453,1.999945-2,2Z" transform="translate(-263.734-80.803)" fill="#ccc"/><path d="M588.73425,450.197c-1.104547-.000055-1.999945-.895453-2-2v-48c0-1.104569.895431-2,2-2s2,.895431,2,2v48c-.000055,1.104547-.895453,1.999945-2,2Z" transform="translate(-263.734-80.803)" fill="#ccc"/><path d="M576.73425,611.197c-1.104547-.000055-1.999945-.895453-2-2v-118c0-1.104569.895431-2,2-2s2,.895431,2,2v118c-.000055,1.104547-.895453,1.999945-2,2Z" transform="translate(-263.734-80.803)" fill="#ccc"/></g><g id="elIg6qGjkRM30" filter="url(#elIg6qGjkRM30-filter)"><path d="M626.73425,530.197c-1.104547-.000055-1.999945-.895453-2-2v-118c0-1.104569.895431-2,2-2s2,.895431,2,2v118c-.000055,1.104547-.895453,1.999945-2,2Z" transform="translate(-263.734-80.803)" fill="#ccc"/><path d="M499.73425,682.197c-1.104547-.000055-1.999945-.895453-2-2v-86c0-1.104569.895431-2,2-2s2,.895431,2,2v86c-.000055,1.104547-.895453,1.999945-2,2Z" transform="translate(-263.734-80.803)" fill="#ccc"/><path d="M529.73425,576.197c-1.104547-.000055-1.999945-.895453-2-2v-118c0-1.104569.895431-2,2-2s2,.895431,2,2v118c-.000055,1.104547-.895453,1.999945-2,2Z" transform="translate(-263.734-80.803)" fill="#ccc"/><path d="M658.73425,626.197c-1.104547-.000055-1.999945-.895453-2-2v-58c0-1.104569.895431-2,2-2s2,.895431,2,2v58c-.000055,1.104547-.895453,1.999945-2,2Z" transform="translate(-263.734-80.803)" fill="#ccc"/><path d="M547.73425,696.197c-1.104547-.000055-1.999945-.895453-2-2v-48c0-1.104569.895431-2,2-2s2,.895431,2,2v48c-.000055,1.104547-.895453,1.999945-2,2Z" transform="translate(-263.734-80.803)" fill="#ccc"/></g><ellipse rx="6.76007" ry="21.5337" transform="matrix(.766735-.641963 0.641963 0.766735 589.818942 683.048475)" fill="#2f2e41"/><circle r="43.0673" transform="matrix(.316962-.948438 0.948438 0.316962 548.972267 677.25331)" fill="#2f2e41"/><rect width="13.0837" height="23.4417" rx="0" ry="0" transform="translate(553.707 710.302)" fill="#2f2e41"/><rect width="13.0837" height="23.4417" rx="0" ry="0" transform="translate(527.54 710.302)" fill="#2f2e41"/><ellipse rx="10.9031" ry="4.08868" transform="translate(555.888 734.016)" fill="#2f2e41"/><ellipse rx="10.9031" ry="4.08868" transform="translate(529.72 733.471)" fill="#2f2e41"/><path id="elIg6qGjkRM42" d="M798.77365,703.16853c3.84557-15.487,20.82057-24.60076,37.91471-20.35617s27.83428,20.24028,23.98871,35.72729-16.60394,15.537-33.69809,11.29233-32.05092-11.17641-28.20533-26.66345Z" transform="translate(-270.624917-82.115705)" fill="#ccc"/><ellipse rx="6.76007" ry="21.5337" transform="matrix(.424791-.895646 0.90496 0.429208 498.254908 663.041281)" fill="#2f2e41"/><circle r="14.3586" transform="translate(542.124 667.415)" fill="#fff"/><circle r="4.78561" transform="translate(537.999069 663.999293)" fill="#3f3d56"/><circle r="7.74951" transform="translate(543.749511 699.143511)" fill="#fff"/><path d="M935.26575,819.197h-236c-.552285,0-1-.447715-1-1s.447715-1,1-1h236c.552285,0,1,.447715,1,1s-.447715,1-1,1Z" transform="translate(-263.734-80.803)" fill="#3f3d56"/><script><![CDATA[!function(t,n){"object"==typeof exports&&"undefined"!=typeof module?module.exports=n():"function"==typeof define&&define.amd?define(n):((t="undefined"!=typeof globalThis?globalThis:t||self).__SVGATOR_PLAYER__=t.__SVGATOR_PLAYER__||{},t.__SVGATOR_PLAYER__["5c7f360c"]=n())}(this,(function(){"use strict";function t(t,n){var r=Object.keys(t);if(Object.getOwnPropertySymbols){var e=Object.getOwnPropertySymbols(t);n&&(e=e.filter((function(n){return Object.getOwnPropertyDescriptor(t,n).enumerable}))),r.push.apply(r,e)}return r}function n(n){for(var r=1;r<arguments.length;r++){var e=null!=arguments[r]?arguments[r]:{};r%2?t(Object(e),!0).forEach((function(t){u(n,t,e[t])})):Object.getOwnPropertyDescriptors?Object.defineProperties(n,Object.getOwnPropertyDescriptors(e)):t(Object(e)).forEach((function(t){Object.defineProperty(n,t,Object.getOwnPropertyDescriptor(e,t))}))}return n}function r(t){return(r="function"==typeof Symbol&&"symbol"==typeof Symbol.iterator?function(t){return typeof t}:function(t){return t&&"function"==typeof Symbol&&t.constructor===Symbol&&t!==Symbol.prototype?"symbol":typeof t})(t)}function e(t,n){if(!(t instanceof n))throw new TypeError("Cannot call a class as a function")}function i(t,n){for(var r=0;r<n.length;r++){var e=n[r];e.enumerable=e.enumerable||!1,e.configurable=!0,"value"in e&&(e.writable=!0),Object.defineProperty(t,e.key,e)}}function o(t,n,r){return n&&i(t.prototype,n),r&&i(t,r),t}function u(t,n,r){return n in t?Object.defineProperty(t,n,{value:r,enumerable:!0,configurable:!0,writable:!0}):t[n]=r,t}function a(t){return(a=Object.setPrototypeOf?Object.getPrototypeOf:function(t){return t.__proto__||Object.getPrototypeOf(t)})(t)}function l(t,n){return(l=Object.setPrototypeOf||function(t,n){return t.__proto__=n,t})(t,n)}function f(){if("undefined"==typeof Reflect||!Reflect.construct)return!1;if(Reflect.construct.sham)return!1;if("function"==typeof Proxy)return!0;try{return Boolean.prototype.valueOf.call(Reflect.construct(Boolean,[],(function(){}))),!0}catch(t){return!1}}function s(t,n,r){return(s=f()?Reflect.construct:function(t,n,r){var e=[null];e.push.apply(e,n);var i=new(Function.bind.apply(t,e));return r&&l(i,r.prototype),i}).apply(null,arguments)}function c(t,n){if(n&&("object"==typeof n||"function"==typeof n))return n;if(void 0!==n)throw new TypeError("Derived constructors may only return object or undefined");return function(t){if(void 0===t)throw new ReferenceError("this hasn't been initialised - super() hasn't been called");return t}(t)}function h(t,n,r){return(h="undefined"!=typeof Reflect&&Reflect.get?Reflect.get:function(t,n,r){var e=function(t,n){for(;!Object.prototype.hasOwnProperty.call(t,n)&&null!==(t=a(t)););return t}(t,n);if(e){var i=Object.getOwnPropertyDescriptor(e,n);return i.get?i.get.call(r):i.value}})(t,n,r||t)}function v(t){return function(t){if(Array.isArray(t))return y(t)}(t)||function(t){if("undefined"!=typeof Symbol&&null!=t[Symbol.iterator]||null!=t["@@iterator"])return Array.from(t)}(t)||function(t,n){if(!t)return;if("string"==typeof t)return y(t,n);var r=Object.prototype.toString.call(t).slice(8,-1);"Object"===r&&t.constructor&&(r=t.constructor.name);if("Map"===r||"Set"===r)return Array.from(t);if("Arguments"===r||/^(?:Ui|I)nt(?:8|16|32)(?:Clamped)?Array$/.test(r))return y(t,n)}(t)||function(){throw new TypeError("Invalid attempt to spread non-iterable instance.\nIn order to be iterable, non-array objects must have a [Symbol.iterator]() method.")}()}function y(t,n){(null==n||n>t.length)&&(n=t.length);for(var r=0,e=new Array(n);r<n;r++)e[r]=t[r];return e}var g=d(Math.pow(10,-6));function d(t){var n=arguments.length>1&&void 0!==arguments[1]?arguments[1]:6;if(Number.isInteger(t))return t;var r=Math.pow(10,n);return Math.round((+t+Number.EPSILON)*r)/r}function p(t,n){var r=arguments.length>2&&void 0!==arguments[2]?arguments[2]:g;return Math.abs(t-n)<r}var m=Math.PI/180;function b(t){return t}function w(t,n,r){var e=1-r;return 3*r*e*(t*e+n*r)+r*r*r}function A(){var t=arguments.length>0&&void 0!==arguments[0]?arguments[0]:0,n=arguments.length>1&&void 0!==arguments[1]?arguments[1]:0,r=arguments.length>2&&void 0!==arguments[2]?arguments[2]:1,e=arguments.length>3&&void 0!==arguments[3]?arguments[3]:1;return t<0||t>1||r<0||r>1?null:p(t,n)&&p(r,e)?b:function(i){if(i<=0)return t>0?i*n/t:0===n&&r>0?i*e/r:0;if(i>=1)return r<1?1+(i-1)*(e-1)/(r-1):1===r&&t<1?1+(i-1)*(n-1)/(t-1):1;for(var o,u=0,a=1;u<a;){var l=w(t,r,o=(u+a)/2);if(p(i,l))break;l<i?u=o:a=o}return w(n,e,o)}}function x(){return 1}function k(t){return 1===t?1:0}function S(){var t=arguments.length>0&&void 0!==arguments[0]?arguments[0]:1,n=arguments.length>1&&void 0!==arguments[1]?arguments[1]:0;if(1===t){if(0===n)return k;if(1===n)return x}var r=1/t;return function(t){return t>=1?1:(t+=n*r)-t%r}}var _=Math.sin,O=Math.cos,j=Math.acos,M=Math.asin,P=Math.tan,E=Math.atan2,I=Math.PI/180,R=180/Math.PI,F=Math.sqrt,N=function(){function t(){var n=arguments.length>0&&void 0!==arguments[0]?arguments[0]:1,r=arguments.length>1&&void 0!==arguments[1]?arguments[1]:0,i=arguments.length>2&&void 0!==arguments[2]?arguments[2]:0,o=arguments.length>3&&void 0!==arguments[3]?arguments[3]:1,u=arguments.length>4&&void 0!==arguments[4]?arguments[4]:0,a=arguments.length>5&&void 0!==arguments[5]?arguments[5]:0;e(this,t),this.m=[n,r,i,o,u,a],this.i=null,this.w=null,this.s=null}return o(t,[{key:"determinant",get:function(){var t=this.m;return t[0]*t[3]-t[1]*t[2]}},{key:"isIdentity",get:function(){if(null===this.i){var t=this.m;this.i=1===t[0]&&0===t[1]&&0===t[2]&&1===t[3]&&0===t[4]&&0===t[5]}return this.i}},{key:"point",value:function(t,n){var r=this.m;return{x:r[0]*t+r[2]*n+r[4],y:r[1]*t+r[3]*n+r[5]}}},{key:"translateSelf",value:function(){var t=arguments.length>0&&void 0!==arguments[0]?arguments[0]:0,n=arguments.length>1&&void 0!==arguments[1]?arguments[1]:0;if(!t&&!n)return this;var r=this.m;return r[4]+=r[0]*t+r[2]*n,r[5]+=r[1]*t+r[3]*n,this.w=this.s=this.i=null,this}},{key:"rotateSelf",value:function(){var t=arguments.length>0&&void 0!==arguments[0]?arguments[0]:0;if(t%=360){var n=_(t*=I),r=O(t),e=this.m,i=e[0],o=e[1];e[0]=i*r+e[2]*n,e[1]=o*r+e[3]*n,e[2]=e[2]*r-i*n,e[3]=e[3]*r-o*n,this.w=this.s=this.i=null}return this}},{key:"scaleSelf",value:function(){var t=arguments.length>0&&void 0!==arguments[0]?arguments[0]:1,n=arguments.length>1&&void 0!==arguments[1]?arguments[1]:1;if(1!==t||1!==n){var r=this.m;r[0]*=t,r[1]*=t,r[2]*=n,r[3]*=n,this.w=this.s=this.i=null}return this}},{key:"skewSelf",value:function(t,n){if(n%=360,(t%=360)||n){var r=this.m,e=r[0],i=r[1],o=r[2],u=r[3];t&&(t=P(t*I),r[2]+=e*t,r[3]+=i*t),n&&(n=P(n*I),r[0]+=o*n,r[1]+=u*n),this.w=this.s=this.i=null}return this}},{key:"resetSelf",value:function(){var t=arguments.length>0&&void 0!==arguments[0]?arguments[0]:1,n=arguments.length>1&&void 0!==arguments[1]?arguments[1]:0,r=arguments.length>2&&void 0!==arguments[2]?arguments[2]:0,e=arguments.length>3&&void 0!==arguments[3]?arguments[3]:1,i=arguments.length>4&&void 0!==arguments[4]?arguments[4]:0,o=arguments.length>5&&void 0!==arguments[5]?arguments[5]:0,u=this.m;return u[0]=t,u[1]=n,u[2]=r,u[3]=e,u[4]=i,u[5]=o,this.w=this.s=this.i=null,this}},{key:"recomposeSelf",value:function(){var t=arguments.length>0&&void 0!==arguments[0]?arguments[0]:null,n=arguments.length>1&&void 0!==arguments[1]?arguments[1]:null,r=arguments.length>2&&void 0!==arguments[2]?arguments[2]:null,e=arguments.length>3&&void 0!==arguments[3]?arguments[3]:null,i=arguments.length>4&&void 0!==arguments[4]?arguments[4]:null;return this.isIdentity||this.resetSelf(),t&&(t.x||t.y)&&this.translateSelf(t.x,t.y),n&&this.rotateSelf(n),r&&(r.x&&this.skewSelf(r.x,0),r.y&&this.skewSelf(0,r.y)),!e||1===e.x&&1===e.y||this.scaleSelf(e.x,e.y),i&&(i.x||i.y)&&this.translateSelf(i.x,i.y),this}},{key:"decompose",value:function(){var t=arguments.length>0&&void 0!==arguments[0]?arguments[0]:0,n=arguments.length>1&&void 0!==arguments[1]?arguments[1]:0,r=this.m,e=r[0]*r[0]+r[1]*r[1],i=[[r[0],r[1]],[r[2],r[3]]],o=F(e);if(0===o)return{origin:{x:d(r[4]),y:d(r[5])},translate:{x:d(t),y:d(n)},scale:{x:0,y:0},skew:{x:0,y:0},rotate:0};i[0][0]/=o,i[0][1]/=o;var u=r[0]*r[3]-r[1]*r[2]<0;u&&(o=-o);var a=i[0][0]*i[1][0]+i[0][1]*i[1][1];i[1][0]-=i[0][0]*a,i[1][1]-=i[0][1]*a;var l=F(i[1][0]*i[1][0]+i[1][1]*i[1][1]);if(0===l)return{origin:{x:d(r[4]),y:d(r[5])},translate:{x:d(t),y:d(n)},scale:{x:d(o),y:0},skew:{x:0,y:0},rotate:0};i[1][0]/=l,i[1][1]/=l,a/=l;var f=0;return i[1][1]<0?(f=j(i[1][1])*R,i[0][1]<0&&(f=360-f)):f=M(i[0][1])*R,u&&(f=-f),a=E(a,F(i[0][0]*i[0][0]+i[0][1]*i[0][1]))*R,u&&(a=-a),{origin:{x:d(r[4]),y:d(r[5])},translate:{x:d(t),y:d(n)},scale:{x:d(o),y:d(l)},skew:{x:d(a),y:0},rotate:d(f)}}},{key:"clone",value:function(){var t=this.m;return new this.constructor(t[0],t[1],t[2],t[3],t[4],t[5])}},{key:"toString",value:function(){var t=arguments.length>0&&void 0!==arguments[0]?arguments[0]:" ";if(null===this.s){var n=this.m.map((function(t){return d(t)}));1===n[0]&&0===n[1]&&0===n[2]&&1===n[3]?this.s="translate("+n[4]+t+n[5]+")":this.s="matrix("+n.join(t)+")"}return this.s}}],[{key:"create",value:function(t){return t?Array.isArray(t)?s(this,v(t)):t instanceof this?t.clone():(new this).recomposeSelf(t.origin,t.rotate,t.skew,t.scale,t.translate):new this}}]),t}();function T(t,n,r){return t>=.5?r:n}function B(t,n,r){return 0===t||n===r?n:t*(r-n)+n}function q(t,n,r){var e=B(t,n,r);return e<=0?0:e}function L(t,n,r){var e=B(t,n,r);return e<=0?0:e>=1?1:e}function C(t,n,r){return 0===t?n:1===t?r:{x:B(t,n.x,r.x),y:B(t,n.y,r.y)}}function D(t,n,r){var e=function(t,n,r){return Math.round(B(t,n,r))}(t,n,r);return e<=0?0:e>=255?255:e}function z(t,n,r){return 0===t?n:1===t?r:{r:D(t,n.r,r.r),g:D(t,n.g,r.g),b:D(t,n.b,r.b),a:B(t,null==n.a?1:n.a,null==r.a?1:r.a)}}function V(t,n){for(var r=[],e=0;e<t;e++)r.push(n);return r}function G(t,n){if(--n<=0)return t;var r=(t=Object.assign([],t)).length;do{for(var e=0;e<r;e++)t.push(t[e])}while(--n>0);return t}var Y,$=function(){function t(n){e(this,t),this.list=n,this.length=n.length}return o(t,[{key:"setAttribute",value:function(t,n){for(var r=this.list,e=0;e<this.length;e++)r[e].setAttribute(t,n)}},{key:"removeAttribute",value:function(t){for(var n=this.list,r=0;r<this.length;r++)n[r].removeAttribute(t)}},{key:"style",value:function(t,n){for(var r=this.list,e=0;e<this.length;e++)r[e].style[t]=n}}]),t}(),U=/-./g,Q=function(t,n){return n.toUpperCase()};function H(t){return"function"==typeof t?t:T}function J(t){return t?"function"==typeof t?t:Array.isArray(t)?function(t){var n=arguments.length>1&&void 0!==arguments[1]?arguments[1]:b;if(!Array.isArray(t))return n;switch(t.length){case 1:return S(t[0])||n;case 2:return S(t[0],t[1])||n;case 4:return A(t[0],t[1],t[2],t[3])||n}return n}(t,null):function(t,n){var r=arguments.length>2&&void 0!==arguments[2]?arguments[2]:b;switch(t){case"linear":return b;case"steps":return S(n.steps||1,n.jump||0)||r;case"bezier":case"cubic-bezier":return A(n.x1||0,n.y1||0,n.x2||0,n.y2||0)||r}return r}(t.type,t.value,null):null}function Z(t,n,r){var e=arguments.length>3&&void 0!==arguments[3]&&arguments[3],i=n.length-1;if(t<=n[0].t)return e?[0,0,n[0].v]:n[0].v;if(t>=n[i].t)return e?[i,1,n[i].v]:n[i].v;var o,u=n[0],a=null;for(o=1;o<=i;o++){if(!(t>n[o].t)){a=n[o];break}u=n[o]}return null==a?e?[i,1,n[i].v]:n[i].v:u.t===a.t?e?[o,1,a.v]:a.v:(t=(t-u.t)/(a.t-u.t),u.e&&(t=u.e(t)),e?[o,t,r(t,u.v,a.v)]:r(t,u.v,a.v))}function K(t,n){var r=arguments.length>2&&void 0!==arguments[2]?arguments[2]:null;return t&&t.length?"function"!=typeof n?null:("function"!=typeof r&&(r=null),function(e){var i=Z(e,t,n);return null!=i&&r&&(i=r(i)),i}):null}function W(t,n){return t.t-n.t}function X(t,n,e,i,o){var u,a="@"===e[0],l="#"===e[0],f=Y[e],s=T;switch(a?(u=e.substr(1),e=u.replace(U,Q)):l&&(e=e.substr(1)),r(f)){case"function":if(s=f(i,o,Z,J,e,a,n,t),l)return s;break;case"string":s=K(i,H(f));break;case"object":if((s=K(i,H(f.i),f.f))&&"function"==typeof f.u)return f.u(n,s,e,a,t)}return s?function(t,n,r){if(arguments.length>3&&void 0!==arguments[3]&&arguments[3])return t instanceof $?function(e){return t.style(n,r(e))}:function(e){return t.style[n]=r(e)};if(Array.isArray(n)){var e=n.length;return function(i){var o=r(i);if(null==o)for(var u=0;u<e;u++)t[u].removeAttribute(n);else for(var a=0;a<e;a++)t[a].setAttribute(n,o)}}return function(e){var i=r(e);null==i?t.removeAttribute(n):t.setAttribute(n,i)}}(n,e,s,a):null}function tt(t,n,e,i){if(!i||"object"!==r(i))return null;var o=null,u=null;return Array.isArray(i)?u=function(t){if(!t||!t.length)return null;for(var n=0;n<t.length;n++)t[n].e&&(t[n].e=J(t[n].e));return t.sort(W)}(i):(u=i.keys,o=i.data||null),u?X(t,n,e,u,o):null}function nt(t,n,r){if(!r)return null;var e=[];for(var i in r)if(r.hasOwnProperty(i)){var o=tt(t,n,i,r[i]);o&&e.push(o)}return e.length?e:null}function rt(t,n){if(!n.duration||n.duration<0)return null;var r=function(t,n){if(!n)return null;var r=[];if(Array.isArray(n))for(var e=n.length,i=0;i<e;i++){var o=n[i];if(2===o.length){var u=null;if("string"==typeof o[0])u=t.getElementById(o[0]);else if(Array.isArray(o[0])){u=[];for(var a=0;a<o[0].length;a++)if("string"==typeof o[0][a]){var l=t.getElementById(o[0][a]);l&&u.push(l)}u=u.length?1===u.length?u[0]:new $(u):null}if(u){var f=nt(t,u,o[1]);f&&(r=r.concat(f))}}}else for(var s in n)if(n.hasOwnProperty(s)){var c=t.getElementById(s);if(c){var h=nt(t,c,n[s]);h&&(r=r.concat(h))}}return r.length?r:null}(t,n.elements);return r?function(t,n){var r=arguments.length>2&&void 0!==arguments[2]?arguments[2]:1/0,e=arguments.length>3&&void 0!==arguments[3]?arguments[3]:1,i=arguments.length>4&&void 0!==arguments[4]&&arguments[4],o=arguments.length>5&&void 0!==arguments[5]?arguments[5]:1,u=t.length,a=e>0?n:0;i&&r%2==0&&(a=n-a);var l=null;return function(f,s){var c=f%n,h=1+(f-c)/n;s*=e,i&&h%2==0&&(s=-s);var v=!1;if(h>r)c=a,v=!0,-1===o&&(c=e>0?0:n);else if(s<0&&(c=n-c),c===l)return!1;l=c;for(var y=0;y<u;y++)t[y](c);return v}}(r,n.duration,n.iterations||1/0,n.direction||1,!!n.alternate,n.fill||1):null}function et(t){return+("0x"+(t.replace(/[^0-9a-fA-F]+/g,"")||27))}function it(t,n,r){return!t||!r||n>t.length?t:t.substring(0,n)+it(t.substring(n+1),r,r)}function ot(t){var n=arguments.length>1&&void 0!==arguments[1]?arguments[1]:27;return!t||t%n?t%n:ot(t/n,n)}function ut(t,n,r){if(t&&t.length){var e=et(r),i=et(n),o=ot(e)+5,u=it(t,ot(e,5),o);return u=u.replace(/\x7c$/g,"==").replace(/\x2f$/g,"="),u=function(t,n,r){var e=+("0x"+t.substring(0,4));t=t.substring(4);for(var i=n%e+r%27,o=[],u=0;u<t.length;u+=2)if("|"!==t[u]){var a=+("0x"+t[u]+t[u+1])-i;o.push(a)}else{var l=+("0x"+t.substring(u+1,u+1+4))-i;u+=3,o.push(l)}return String.fromCharCode.apply(String,o)}(u=(u=atob(u)).replace(/[\x41-\x5A]/g,""),i,e),u=JSON.parse(u)}}Number.isInteger||(Number.isInteger=function(t){return"number"==typeof t&&isFinite(t)&&Math.floor(t)===t}),Number.EPSILON||(Number.EPSILON=2220446049250313e-31);var at=function(){function t(n,r){var i=arguments.length>2&&void 0!==arguments[2]?arguments[2]:{};e(this,t),this._id=0,this._running=!1,this._rollingBack=!1,this._animations=n,this.duration=r.duration,this.alternate=r.alternate,this.fill=r.fill,this.iterations=r.iterations,this.direction=i.direction||1,this.speed=i.speed||1,this.fps=i.fps||100,this.offset=i.offset||0,this.rollbackStartOffset=0}return o(t,[{key:"_rollback",value:function(){var t=this,n=1/0,r=null;this.rollbackStartOffset=this.offset,this._rollingBack||(this._rollingBack=!0,this._running=!0);this._id=window.requestAnimationFrame((function e(i){if(t._rollingBack){null==r&&(r=i);var o=i-r,u=t.rollbackStartOffset-o,a=Math.round(u*t.speed);if(a>t.duration&&n!=1/0){var l=!!t.alternate&&a/t.duration%2>1,f=a%t.duration;a=(f+=l?t.duration:0)||t.duration}var s=t.fps?1e3/t.fps:0,c=Math.max(0,a);if(c<n-s){t.offset=c,n=c;for(var h=t._animations,v=h.length,y=0;y<v;y++)h[y](c,t.direction)}var g=!1;if(t.iterations>0&&-1===t.fill){var d=t.iterations*t.duration,p=d==a;a=p?0:a,t.offset=p?0:t.offset,g=a>d}a>0&&t.offset>=a&&!g?t._id=window.requestAnimationFrame(e):t.stop()}}))}},{key:"_start",value:function(){var t=this,n=arguments.length>0&&void 0!==arguments[0]?arguments[0]:0,r=-1/0,e=null,i={},o=function o(u){t._running=!0,null==e&&(e=u);var a=Math.round((u-e+n)*t.speed),l=t.fps?1e3/t.fps:0;if(a>r+l&&!t._rollingBack){t.offset=a,r=a;for(var f=t._animations,s=f.length,c=0,h=0;h<s;h++)i[h]?c++:(i[h]=f[h](a,t.direction),i[h]&&c++);if(c===s)return void t._stop()}t._id=window.requestAnimationFrame(o)};this._id=window.requestAnimationFrame(o)}},{key:"_stop",value:function(){this._id&&window.cancelAnimationFrame(this._id),this._running=!1,this._rollingBack=!1}},{key:"play",value:function(){!this._rollingBack&&this._running||(this._rollingBack=!1,this.rollbackStartOffset>this.duration&&(this.offset=this.rollbackStartOffset-(this.rollbackStartOffset-this.offset)%this.duration,this.rollbackStartOffset=0),this._start(this.offset))}},{key:"stop",value:function(){this._stop(),this.offset=0,this.rollbackStartOffset=0;var t=this.direction,n=this._animations;window.requestAnimationFrame((function(){for(var r=0;r<n.length;r++)n[r](0,t)}))}},{key:"reachedToEnd",value:function(){return this.iterations>0&&this.offset>=this.iterations*this.duration}},{key:"restart",value:function(){this._stop(),this.offset=0,this._start()}},{key:"pause",value:function(){this._stop()}},{key:"reverse",value:function(){this.direction=-this.direction}}],[{key:"build",value:function(r,e){return delete r.animationSettings,r.options=ut(r.options,r.root,"5c7f360c"),r.animations.map((function(t){var e=ut(t.s,r.root,"5c7f360c");for(var i in delete t.s,r.animationSettings||(r.animationSettings=n({},e)),e)e.hasOwnProperty(i)&&(t[i]=e[i])})),(r=function(t,n){if(Y=n,!t||!t.root||!Array.isArray(t.animations))return null;for(var r=document.getElementsByTagName("svg"),e=!1,i=0;i<r.length;i++)if(r[i].id===t.root&&!r[i].svgatorAnimation){(e=r[i]).svgatorAnimation=!0;break}if(!e)return null;var o=t.animations.map((function(t){return rt(e,t)})).filter((function(t){return!!t}));return o.length?{element:e,animations:o,animationSettings:t.animationSettings,options:t.options||void 0}:null}(r,e))?{el:r.element,options:r.options||{},player:new t(r.animations,r.animationSettings,r.options)}:null}},{key:"push",value:function(t){return this.build(t)}},{key:"init",value:function(){var t=this,n=window.__SVGATOR_PLAYER__&&window.__SVGATOR_PLAYER__["5c7f360c"];Array.isArray(n)&&n.splice(0).forEach((function(n){return t.build(n)}))}}]),t}();function lt(t){return d(t)+""}function ft(t){var n=arguments.length>1&&void 0!==arguments[1]?arguments[1]:" ";return t&&t.length?t.map(lt).join(n):""}function st(t){if(!t)return"transparent";if(null==t.a||t.a>=1){var n=function(t){return 1===(t=parseInt(t).toString(16)).length?"0"+t:t},r=function(t){return t.charAt(0)===t.charAt(1)},e=n(t.r),i=n(t.g),o=n(t.b);return r(e)&&r(i)&&r(o)&&(e=e.charAt(0),i=i.charAt(0),o=o.charAt(0)),"#"+e+i+o}return"rgba("+t.r+","+t.g+","+t.b+","+t.a+")"}function ct(t){return t?"url(#"+t+")":"none"}!function(){for(var t=0,n=["ms","moz","webkit","o"],r=0;r<n.length&&!window.requestAnimationFrame;++r)window.requestAnimationFrame=window[n[r]+"RequestAnimationFrame"],window.cancelAnimationFrame=window[n[r]+"CancelAnimationFrame"]||window[n[r]+"CancelRequestAnimationFrame"];window.requestAnimationFrame||(window.requestAnimationFrame=function(n){var r=Date.now(),e=Math.max(0,16-(r-t)),i=window.setTimeout((function(){n(r+e)}),e);return t=r+e,i},window.cancelAnimationFrame=window.clearTimeout)}();var ht={f:null,i:function(t,n,r){return 0===t?n:1===t?r:{x:q(t,n.x,r.x),y:q(t,n.y,r.y)}},u:function(t,n){return function(r){var e=n(r);t.setAttribute("rx",lt(e.x)),t.setAttribute("ry",lt(e.y))}}},vt={f:null,i:function(t,n,r){return 0===t?n:1===t?r:{width:q(t,n.width,r.width),height:q(t,n.height,r.height)}},u:function(t,n){return function(r){var e=n(r);t.setAttribute("width",lt(e.width)),t.setAttribute("height",lt(e.height))}}};Object.freeze({M:2,L:2,Z:0,H:1,V:1,C:6,Q:4,T:2,S:4,A:7});var yt={},gt=null;function dt(t){var n=function(){if(gt)return gt;if("object"!==("undefined"==typeof document?"undefined":r(document))||!document.createElementNS)return{};var t=document.createElementNS("http://www.w3.org/2000/svg","svg");return t&&t.style?(t.style.position="absolute",t.style.opacity="0.01",t.style.zIndex="-9999",t.style.left="-9999px",t.style.width="1px",t.style.height="1px",gt={svg:t}):{}}().svg;if(!n)return function(t){return null};var e=document.createElementNS(n.namespaceURI,"path");e.setAttributeNS(null,"d",t),e.setAttributeNS(null,"fill","none"),e.setAttributeNS(null,"stroke","none"),n.appendChild(e);var i=e.getTotalLength();return function(t){var n=e.getPointAtLength(i*t);return{x:n.x,y:n.y}}}function pt(t){return yt[t]?yt[t]:yt[t]=dt(t)}function mt(t,n,r,e){if(!t||!e)return!1;var i=["M",t.x,t.y];if(n&&r&&(i.push("C"),i.push(n.x),i.push(n.y),i.push(r.x),i.push(r.y)),n?!r:r){var o=n||r;i.push("Q"),i.push(o.x),i.push(o.y)}return n||r||i.push("L"),i.push(e.x),i.push(e.y),i.join(" ")}function bt(t,n,r,e){var i=arguments.length>4&&void 0!==arguments[4]?arguments[4]:1,o=mt(t,n,r,e),u=pt(o);try{return u(i)}catch(t){return null}}function wt(t,n,r){return t+(n-t)*r}function At(t,n,r){var e=arguments.length>3&&void 0!==arguments[3]&&arguments[3],i={x:wt(t.x,n.x,r),y:wt(t.y,n.y,r)};return e&&(i.a=xt(t,n)),i}function xt(t,n){return Math.atan2(n.y-t.y,n.x-t.x)}function kt(t,n,r,e){var i=1-e;return i*i*t+2*i*e*n+e*e*r}function St(t,n,r,e){return 2*(1-e)*(n-t)+2*e*(r-n)}function _t(t,n,r,e){var i=arguments.length>4&&void 0!==arguments[4]&&arguments[4],o=bt(t,n,null,r,e);return o||(o={x:kt(t.x,n.x,r.x,e),y:kt(t.y,n.y,r.y,e)}),i&&(o.a=Ot(t,n,r,e)),o}function Ot(t,n,r,e){return Math.atan2(St(t.y,n.y,r.y,e),St(t.x,n.x,r.x,e))}function jt(t,n,r,e,i){var o=i*i;return i*o*(e-t+3*(n-r))+3*o*(t+r-2*n)+3*i*(n-t)+t}function Mt(t,n,r,e,i){var o=1-i;return 3*(o*o*(n-t)+2*o*i*(r-n)+i*i*(e-r))}function Pt(t,n,r,e,i){var o=arguments.length>5&&void 0!==arguments[5]&&arguments[5],u=bt(t,n,r,e,i);return u||(u={x:jt(t.x,n.x,r.x,e.x,i),y:jt(t.y,n.y,r.y,e.y,i)}),o&&(u.a=Et(t,n,r,e,i)),u}function Et(t,n,r,e,i){return Math.atan2(Mt(t.y,n.y,r.y,e.y,i),Mt(t.x,n.x,r.x,e.x,i))}function It(t,n,r){var e=arguments.length>3&&void 0!==arguments[3]&&arguments[3];if(Ft(n)){if(Nt(r))return _t(n,r.start,r,t,e)}else if(Ft(r)){if(n.end)return _t(n,n.end,r,t,e)}else{if(n.end)return r.start?Pt(n,n.end,r.start,r,t,e):_t(n,n.end,r,t,e);if(r.start)return _t(n,r.start,r,t,e)}return At(n,r,t,e)}function Rt(t,n,r){var e=It(t,n,r,!0);return e.a=function(t){return arguments.length>1&&void 0!==arguments[1]&&arguments[1]?t+Math.PI:t}(e.a)/m,e}function Ft(t){return!t.type||"corner"===t.type}function Nt(t){return null!=t.start&&!Ft(t)}var Tt=new N;var Bt={f:lt,i:B},qt={f:lt,i:L};function Lt(t,n,r){return t.map((function(t){return function(t,n,r){var e=t.v;if(!e||"g"!==e.t||e.s||!e.v||!e.r)return t;var i=r.getElementById(e.r),o=i&&i.querySelectorAll("stop")||[];return e.s=e.v.map((function(t,n){var r=o[n]&&o[n].getAttribute("offset");return{c:t,o:r=d(parseInt(r)/100)}})),delete e.v,t}(t,0,r)}))}var Ct={gt:"gradientTransform",c:{x:"cx",y:"cy"},rd:"r",f:{x:"x1",y:"y1"},to:{x:"x2",y:"y2"}};function Dt(t,n,e,i,o,u,a,l){return Lt(t,0,l),n=function(t,n,r){for(var e,i,o,u=t.length-1,a={},l=0;l<=u;l++)(e=t[l]).e&&(e.e=n(e.e)),e.v&&"g"===(i=e.v).t&&i.r&&(o=r.getElementById(i.r))&&(a[i.r]={e:o,s:o.querySelectorAll("stop")});return a}(t,i,l),function(i){var o=e(i,t,zt);if(!o)return"none";if("c"===o.t)return st(o.v);if("g"===o.t){if(!n[o.r])return ct(o.r);var u=n[o.r];return function(t,n){for(var r=t.s,e=r.length;e<n.length;e++){var i=r[r.length-1].cloneNode();i.id=Yt(i.id),t.e.appendChild(i),r=t.s=t.e.querySelectorAll("stop")}for(var o=0,u=r.length,a=n.length-1;o<u;o++)r[o].setAttribute("stop-color",st(n[Math.min(o,a)].c)),r[o].setAttribute("offset",n[Math.min(o,a)].o)}(u,o.s),Object.keys(Ct).forEach((function(t){if(void 0!==o[t])if("object"!==r(Ct[t])){var n,e="gt"===t?(n=o[t],Array.isArray(n)?"matrix("+n.join(" ")+")":""):o[t],i=Ct[t];u.e.setAttribute(i,e)}else Object.keys(Ct[t]).forEach((function(n){if(void 0!==o[t][n]){var r=o[t][n],e=Ct[t][n];u.e.setAttribute(e,r)}}))})),ct(o.r)}return"none"}}function zt(t,r,e){if(0===t)return r;if(1===t)return e;if(r&&e){var i=r.t;if(i===e.t)switch(r.t){case"c":return{t:i,v:z(t,r.v,e.v)};case"g":if(r.r===e.r){var o={t:i,s:Vt(t,r.s,e.s),r:r.r};return r.gt&&e.gt&&(o.gt=function(t,n,r){var e=n.length;if(e!==r.length)return T(t,n,r);for(var i=new Array(e),o=0;o<e;o++)i[o]=B(t,n[o],r[o]);return i}(t,r.gt,e.gt)),r.c?(o.c=C(t,r.c,e.c),o.rd=q(t,r.rd,e.rd)):r.f&&(o.f=C(t,r.f,e.f),o.to=C(t,r.to,e.to)),o}}if("c"===r.t&&"g"===e.t||"c"===e.t&&"g"===r.t){var u="c"===r.t?r:e,a="g"===r.t?n({},r):n({},e),l=a.s.map((function(t){return{c:u.v,o:t.o}}));return a.s="c"===r.t?Vt(t,l,a.s):Vt(t,a.s,l),a}}return T(t,r,e)}function Vt(t,n,r){if(n.length===r.length)return n.map((function(n,e){return Gt(t,n,r[e])}));for(var e=Math.max(n.length,r.length),i=[],o=0;o<e;o++){var u=Gt(t,n[Math.min(o,n.length-1)],r[Math.min(o,r.length-1)]);i.push(u)}return i}function Gt(t,n,r){return{o:L(t,n.o,r.o||0),c:z(t,n.c,r.c||{})}}function Yt(t){return t.replace(/-fill-([0-9]+)$/,(function(t,n){return"-fill-"+(+n+1)}))}var $t={fill:Dt,"fill-opacity":qt,stroke:Dt,"stroke-opacity":qt,"stroke-width":Bt,"stroke-dashoffset":{f:lt,i:B},"stroke-dasharray":{f:function(t){var n=arguments.length>1&&void 0!==arguments[1]?arguments[1]:" ";return t&&t.length>0&&(t=t.map((function(t){return d(t,4)}))),ft(t,n)},i:function(t,n,r){var e,i,o,u=n.length,a=r.length;if(u!==a)if(0===u)n=V(u=a,0);else if(0===a)a=u,r=V(u,0);else{var l=(o=(e=u)*(i=a)/function(t,n){for(var r;n;)r=n,n=t%n,t=r;return t||1}(e,i))<0?-o:o;n=G(n,Math.floor(l/u)),r=G(r,Math.floor(l/a)),u=a=l}for(var f=[],s=0;s<u;s++)f.push(d(q(t,n[s],r[s])));return f}},opacity:qt,transform:function(t,n,e,i){if(!(t=function(t,n){if(!t||"object"!==r(t))return null;var e=!1;for(var i in t)t.hasOwnProperty(i)&&(t[i]&&t[i].length?(t[i].forEach((function(t){t.e&&(t.e=n(t.e))})),e=!0):delete t[i]);return e?t:null}(t,i)))return null;var o=function(r,i,o){var u=arguments.length>3&&void 0!==arguments[3]?arguments[3]:null;return t[r]?e(i,t[r],o):n&&n[r]?n[r]:u};return n&&n.a&&t.o?function(n){var r=e(n,t.o,Rt);return Tt.recomposeSelf(r,o("r",n,B,0)+r.a,o("k",n,C),o("s",n,C),o("t",n,C)).toString()}:function(t){return Tt.recomposeSelf(o("o",t,It,null),o("r",t,B,0),o("k",t,C),o("s",t,C),o("t",t,C)).toString()}},r:Bt,"#size":vt,"#radius":ht,_:function(t,n){if(Array.isArray(t))for(var r=0;r<t.length;r++)this[t[r]]=n;else this[t]=n}},Ut=function(t){!function(t,n){if("function"!=typeof n&&null!==n)throw new TypeError("Super expression must either be null or a function");t.prototype=Object.create(n&&n.prototype,{constructor:{value:t,writable:!0,configurable:!0}}),n&&l(t,n)}(u,t);var n,r,i=(n=u,r=f(),function(){var t,e=a(n);if(r){var i=a(this).constructor;t=Reflect.construct(e,arguments,i)}else t=e.apply(this,arguments);return c(this,t)});function u(){return e(this,u),i.apply(this,arguments)}return o(u,null,[{key:"build",value:function(t){var n=h(a(u),"build",this).call(this,t,$t);if(!n)return null;n.el,n.options,function(t,n,r){t.play()}(n.player)}}]),u}(at);return Ut.init(),Ut}));
(function(s,i,o,w){w[o]=w[o]||{};w[o][s]=w[o][s]||[];w[o][s].push(i);})('5c7f360c',{"root":"elIg6qGjkRM1","animations":[{"elements":{"elIg6qGjkRM12":{"transform":{"data":{"t":{"x":-339.106994,"y":-470.409485}},"keys":{"o":[{"t":0,"v":{"x":339.106995,"y":470.409485,"type":"corner"},"e":[0.42,0,0.58,1]},{"t":2000,"v":{"x":339.106995,"y":546,"type":"corner"}},{"t":4000,"v":{"x":339.106995,"y":470.409485,"type":"corner"}}]}},"opacity":[{"t":0,"v":1},{"t":500,"v":0.65},{"t":1000,"v":1},{"t":1500,"v":0.28},{"t":2000,"v":1},{"t":2500,"v":0.67},{"t":3000,"v":1},{"t":3500,"v":0.69},{"t":4000,"v":1}]},"elIg6qGjkRM24":{"transform":{"data":{"t":{"x":-355.000244,"y":-551.394012}},"keys":{"o":[{"t":0,"v":{"x":355.000244,"y":551.394012,"type":"corner"}},{"t":800,"v":{"x":355.000244,"y":540,"type":"corner"}},{"t":1600,"v":{"x":355.000244,"y":576,"type":"corner"}},{"t":2500,"v":{"x":355.000244,"y":551.394012,"type":"corner"}},{"t":3200,"v":{"x":355.000244,"y":537,"type":"corner"}},{"t":4000,"v":{"x":355.000244,"y":551.394012,"type":"corner"}}]}}},"elIg6qGjkRM30":{"transform":{"data":{"t":{"x":-363.000244,"y":-388.393997}},"keys":{"o":[{"t":0,"v":{"x":363.000244,"y":388.393997,"type":"corner"},"e":[0.42,0,0.58,1]},{"t":800,"v":{"x":363.000244,"y":424.000015,"type":"corner"}},{"t":1900,"v":{"x":363.000244,"y":388,"type":"corner"}},{"t":2700,"v":{"x":363.000244,"y":428,"type":"corner"}},{"t":3500,"v":{"x":363.000244,"y":389,"type":"corner"}},{"t":4000,"v":{"x":363.000244,"y":422,"type":"corner"}}]}}},"elIg6qGjkRM42":{"transform":{"keys":{"o":[{"t":0,"v":{"x":-270.624917,"y":-82.115705,"type":"corner"}},{"t":2000,"v":{"x":-257,"y":-100,"type":"corner"}},{"t":4000,"v":{"x":-270,"y":-82,"type":"corner"}}]}}}},"s":"MUDA1M2E0NGI4ZDllTjUliOGE5ZDkyOTg5NzRUiNjM1ZDU5NTk1OTU1XNGI4ZFY5MjliOGU4YNzlkOTI5ODk3NGI2M0Eo1YTU1UjRiOTI5ZDhMlTzliOGE5ZDkyOTg5WNzljNGJCNjM1OTU1NIGJTOGZFOTI5NTk1NGMI2M081YTU1NGJBOGEF5NTlkOGU5Yjk3TDhhNUDlkOGU0Yk42MzhmOOGE5NTljOGU1NTRiOWLNJOTk4ZThlOGQ0YjYBzNWFhNg|"}],"options":"MFDAxMDg4MmY4MDgxTTPZlN2Y4MTJmNDcyZjcL5N2M2ZTcxMmY4YQ|"},'__SVGATOR_PLAYER__',window)]]></script></svg>